<?xml version="1.0" encoding="UTF-8" standalone="no"?><!DOCTYPE svg PUBLIC "-//W3C//DTD SVG 1.1//EN" "http://www.w3.org/Graphics/SVG/1.1/DTD/svg11.dtd"><svg width="100%" height="100%" viewBox="0 0 156 156" version="1.1" xmlns="http://www.w3.org/2000/svg" xmlns:xlink="http://www.w3.org/1999/xlink" xml:space="preserve" xmlns:serif="http://www.serif.com/" style="fill-rule:evenodd;clip-rule:evenodd;stroke-linejoin:round;stroke-miterlimit:2;"><g><path d="M77.828,-0c42.983,-0 77.828,34.844 77.828,77.828c0,42.983 -34.845,77.828 -77.828,77.828c-42.983,0 -77.828,-34.845 -77.828,-77.828c-0,-42.984 34.845,-77.828 77.828,-77.828Z" style="fill:#da4391;fill-rule:nonzero;"/><path d="M77.828,28.825c-13.309,0 -14.977,0.057 -20.204,0.295c-5.215,0.238 -8.778,1.066 -11.894,2.278c-3.223,1.252 -5.956,2.927 -8.68,5.652c-2.725,2.724 -4.4,5.457 -5.652,8.68c-1.211,3.116 -2.04,6.678 -2.278,11.894c-0.238,5.228 -0.295,6.895 -0.295,20.204c0,13.308 0.057,14.978 0.295,20.204c0.238,5.216 1.067,8.778 2.278,11.895c1.252,3.223 2.927,5.955 5.652,8.679c2.724,2.724 5.457,4.4 8.68,5.653c3.116,1.211 6.679,2.04 11.894,2.277c5.227,0.239 6.895,0.295 20.204,0.295c13.308,0 14.977,-0.056 20.203,-0.295c5.217,-0.237 8.779,-1.066 11.896,-2.277c3.223,-1.253 5.955,-2.929 8.68,-5.653c2.723,-2.724 4.4,-5.456 5.652,-8.679c1.21,-3.117 2.04,-6.679 2.277,-11.895c0.239,-5.226 0.295,-6.896 0.295,-20.204c0,-13.308 -0.056,-14.976 -0.295,-20.204c-0.237,-5.216 -1.067,-8.778 -2.277,-11.894c-1.252,-3.223 -2.929,-5.956 -5.652,-8.68c-2.725,-2.725 -5.457,-4.4 -8.68,-5.652c-3.117,-1.212 -6.679,-2.04 -11.896,-2.278c-5.226,-0.238 -6.895,-0.295 -20.203,-0.295Zm0,8.83c13.085,0 14.634,0.05 19.802,0.285c4.777,0.219 7.371,1.017 9.098,1.688c2.288,0.889 3.921,1.951 5.635,3.665c1.715,1.715 2.777,3.347 3.666,5.634c0.671,1.727 1.469,4.321 1.688,9.099c0.235,5.168 0.284,6.718 0.284,19.802c0,13.085 -0.049,14.634 -0.284,19.802c-0.219,4.777 -1.017,7.372 -1.688,9.098c-0.889,2.288 -1.951,3.921 -3.666,5.635c-1.714,1.715 -3.347,2.777 -5.635,3.666c-1.727,0.671 -4.321,1.47 -9.098,1.686c-5.168,0.237 -6.716,0.286 -19.802,0.286c-13.085,0 -14.635,-0.049 -19.802,-0.286c-4.777,-0.216 -7.372,-1.015 -9.098,-1.686c-2.288,-0.889 -3.92,-1.951 -5.635,-3.666c-1.714,-1.714 -2.776,-3.347 -3.665,-5.635c-0.671,-1.726 -1.469,-4.321 -1.688,-9.098c-0.235,-5.168 -0.285,-6.717 -0.285,-19.802c0,-13.084 0.05,-14.634 0.285,-19.802c0.219,-4.778 1.017,-7.372 1.688,-9.099c0.889,-2.287 1.95,-3.919 3.665,-5.634c1.715,-1.714 3.347,-2.776 5.635,-3.665c1.726,-0.671 4.321,-1.469 9.098,-1.688c5.168,-0.235 6.718,-0.285 19.802,-0.285Z" style="fill:#fff;fill-rule:nonzero;"/><path d="M77.828,94.163c-9.021,-0 -16.334,-7.314 -16.334,-16.335c-0,-9.021 7.313,-16.334 16.334,-16.334c9.021,-0 16.335,7.313 16.335,16.334c-0,9.021 -7.314,16.335 -16.335,16.335Zm0,-41.498c-13.897,-0 -25.163,11.266 -25.163,25.163c-0,13.898 11.266,25.164 25.163,25.164c13.897,-0 25.164,-11.266 25.164,-25.164c-0,-13.897 -11.267,-25.163 -25.164,-25.163Z" style="fill:#fff;fill-rule:nonzero;"/><path d="M109.866,51.67c-0,3.248 -2.633,5.88 -5.879,5.88c-3.248,0 -5.881,-2.632 -5.881,-5.88c0,-3.248 2.633,-5.88 5.881,-5.88c3.246,-0 5.879,2.632 5.879,5.88Z" style="fill:#fff;fill-rule:nonzero;"/></g></svg>