<?xml version="1.0" encoding="UTF-8" standalone="no"?><!DOCTYPE svg PUBLIC "-//W3C//DTD SVG 1.1//EN" "http://www.w3.org/Graphics/SVG/1.1/DTD/svg11.dtd"><svg width="100%" height="100%" viewBox="0 0 156 156" version="1.1" xmlns="http://www.w3.org/2000/svg" xmlns:xlink="http://www.w3.org/1999/xlink" xml:space="preserve" xmlns:serif="http://www.serif.com/" style="fill-rule:evenodd;clip-rule:evenodd;stroke-linejoin:round;stroke-miterlimit:2;"><g><path d="M77.831,155.657c-42.987,0 -77.831,-34.844 -77.831,-77.826c-0,-42.987 34.844,-77.831 77.831,-77.831c42.982,0 77.826,34.844 77.826,77.831c0,42.982 -34.844,77.826 -77.826,77.826Z" style="fill:#da4391;fill-rule:nonzero;"/><path d="M67.212,127.225l19.301,-0l-0,-48.338l13.47,0l1.434,-16.183l-14.904,0l-0,-9.216c-0,-3.817 0.77,-5.326 4.458,-5.326l10.446,0l-0,-16.795l-13.367,-0c-14.363,-0 -20.838,6.325 -20.838,18.433l0,12.904l-10.041,0l-0,16.388l10.041,-0l0,48.133Z" style="fill:#fff;fill-rule:nonzero;"/></g></svg>