<?xml version="1.0" encoding="UTF-8" standalone="no"?><!DOCTYPE svg PUBLIC "-//W3C//DTD SVG 1.1//EN" "http://www.w3.org/Graphics/SVG/1.1/DTD/svg11.dtd"><svg width="100%" height="100%" viewBox="0 0 156 156" version="1.1" xmlns="http://www.w3.org/2000/svg" xmlns:xlink="http://www.w3.org/1999/xlink" xml:space="preserve" xmlns:serif="http://www.serif.com/" style="fill-rule:evenodd;clip-rule:evenodd;stroke-linejoin:round;stroke-miterlimit:2;"><g><path d="M155.656,77.828c0,42.983 -34.845,77.828 -77.828,77.828c-42.983,0 -77.828,-34.845 -77.828,-77.828c0,-42.983 34.845,-77.828 77.828,-77.828c42.983,0 77.828,34.845 77.828,77.828Z" style="fill:#da4391;fill-rule:nonzero;"/><path d="M83.85,67.21c1.278,-1.435 2.332,-2.894 3.645,-4.131c4.036,-3.804 8.81,-5.724 14.384,-5.676c3.063,0.025 6.092,0.246 9.045,1.101c6.756,1.953 10.682,6.603 12.553,13.202c1.404,4.948 1.663,10.03 1.672,15.126c0.018,10.752 -0.031,21.503 -0.008,32.254c0.002,1.007 -0.279,1.271 -1.271,1.262c-5.538,-0.045 -11.078,-0.046 -16.616,0.002c-0.974,0.008 -1.185,-0.294 -1.182,-1.214c0.032,-10.231 0.038,-20.46 0.006,-30.691c-0.009,-2.563 -0.172,-5.125 -0.891,-7.618c-1.325,-4.591 -4.611,-6.931 -9.421,-6.677c-6.569,0.347 -9.984,3.6 -10.821,10.278c-0.201,1.596 -0.296,3.192 -0.294,4.799c0.009,9.949 -0.011,19.899 0.026,29.847c0.004,0.992 -0.244,1.285 -1.258,1.276c-5.578,-0.049 -11.159,-0.044 -16.737,-0.004c-0.893,0.006 -1.153,-0.235 -1.152,-1.14c0.026,-19.697 0.026,-39.395 -0.001,-59.093c-0.001,-0.974 0.318,-1.2 1.24,-1.193c5.298,0.039 10.597,0.044 15.894,-0.003c0.975,-0.009 1.227,0.306 1.205,1.23c-0.054,2.353 -0.018,4.709 -0.018,7.063Z" style="fill:#fefefe;fill-rule:nonzero;"/><path d="M53.503,89.722c0,9.744 -0.016,19.489 0.023,29.234c0.005,1.083 -0.265,1.41 -1.386,1.398c-5.535,-0.061 -11.073,-0.046 -16.61,-0.008c-0.887,0.006 -1.154,-0.216 -1.153,-1.133c0.027,-19.73 0.024,-39.46 0.005,-59.191c-0.002,-0.816 0.197,-1.107 1.064,-1.102c5.616,0.037 11.234,0.047 16.85,-0.006c1.079,-0.011 1.227,0.408 1.224,1.333c-0.026,9.825 -0.017,19.65 -0.017,29.475Z" style="fill:#fefefe;fill-rule:nonzero;"/><path d="M55.031,39.368c0.005,6.118 -4.961,11.103 -11.064,11.105c-6.027,0.002 -11.035,-4.987 -11.054,-11.01c-0.021,-6.089 4.984,-11.104 11.076,-11.098c6.049,0.006 11.035,4.974 11.042,11.003Z" style="fill:#fefefe;fill-rule:nonzero;"/></g></svg>