<?xml version="1.0" encoding="UTF-8" standalone="no"?><!DOCTYPE svg PUBLIC "-//W3C//DTD SVG 1.1//EN" "http://www.w3.org/Graphics/SVG/1.1/DTD/svg11.dtd"><svg width="100%" height="100%" viewBox="0 0 156 156" version="1.1" xmlns="http://www.w3.org/2000/svg" xmlns:xlink="http://www.w3.org/1999/xlink" xml:space="preserve" xmlns:serif="http://www.serif.com/" style="fill-rule:evenodd;clip-rule:evenodd;stroke-linejoin:round;stroke-miterlimit:2;"><rect id="Artboard3" x="0" y="0" width="155.657" height="155.657" style="fill:none;"/><path d="M127.418,109.361l-99.188,0l29.534,-29.525l8.311,8.31c3.154,3.154 7.449,4.876 11.754,4.876c4.585,-0 8.6,-1.722 11.754,-4.876l8.31,-8.31l29.525,29.525Zm-27.522,-31.528l29.534,-29.534l0,59.341l-29.534,-29.807Zm-44.143,0l-29.526,29.526l0,-59.06l29.526,29.534Zm31.818,8.31c-2.574,2.583 -6.018,4.015 -9.742,4.015c-3.725,0 -7.169,-1.432 -9.751,-4.015l-39.848,-39.847l98.899,0l-39.558,39.847Z" style="fill:#fff;"/></svg>