<?xml version="1.0" encoding="UTF-8" standalone="no"?><!DOCTYPE svg PUBLIC "-//W3C//DTD SVG 1.1//EN" "http://www.w3.org/Graphics/SVG/1.1/DTD/svg11.dtd"><svg width="100%" height="100%" viewBox="0 0 156 156" version="1.1" xmlns="http://www.w3.org/2000/svg" xmlns:xlink="http://www.w3.org/1999/xlink" xml:space="preserve" xmlns:serif="http://www.serif.com/" style="fill-rule:evenodd;clip-rule:evenodd;stroke-linejoin:round;stroke-miterlimit:2;"><rect id="Artboard3" x="0" y="0" width="155.657" height="155.657" style="fill:none;"/><g><path d="M83.851,67.211c1.277,-1.436 2.331,-2.894 3.645,-4.132c4.035,-3.803 8.81,-5.723 14.383,-5.676c3.064,0.026 6.093,0.247 9.046,1.101c6.755,1.954 10.681,6.604 12.553,13.202c1.404,4.949 1.662,10.03 1.671,15.127c0.019,10.751 -0.031,21.502 -0.008,32.254c0.003,1.007 -0.279,1.271 -1.27,1.261c-5.538,-0.045 -11.078,-0.046 -16.616,0.003c-0.975,0.008 -1.186,-0.294 -1.182,-1.215c0.031,-10.23 0.038,-20.46 0.006,-30.69c-0.01,-2.563 -0.172,-5.125 -0.892,-7.618c-1.324,-4.592 -4.611,-6.931 -9.421,-6.677c-6.569,0.347 -9.984,3.599 -10.821,10.278c-0.2,1.595 -0.295,3.191 -0.294,4.798c0.009,9.95 -0.01,19.899 0.027,29.847c0.003,0.993 -0.245,1.286 -1.258,1.277c-5.579,-0.05 -11.159,-0.044 -16.737,-0.005c-0.894,0.007 -1.153,-0.234 -1.152,-1.139c0.025,-19.697 0.025,-39.395 -0.001,-59.093c-0.002,-0.974 0.318,-1.2 1.239,-1.193c5.298,0.039 10.597,0.043 15.894,-0.004c0.976,-0.008 1.227,0.307 1.205,1.23c-0.054,2.354 -0.017,4.709 -0.017,7.064Z" style="fill:#fefefe;fill-rule:nonzero;"/><path d="M53.504,89.722c-0,9.744 -0.016,19.489 0.023,29.235c0.004,1.082 -0.265,1.41 -1.386,1.397c-5.536,-0.061 -11.074,-0.046 -16.61,-0.008c-0.887,0.007 -1.155,-0.216 -1.153,-1.132c0.026,-19.731 0.024,-39.461 0.004,-59.191c-0.001,-0.817 0.197,-1.107 1.064,-1.102c5.617,0.036 11.234,0.047 16.85,-0.006c1.08,-0.012 1.227,0.408 1.225,1.333c-0.027,9.824 -0.017,19.649 -0.017,29.474Z" style="fill:#fefefe;fill-rule:nonzero;"/><path d="M55.031,39.369c0.005,6.118 -4.961,11.102 -11.064,11.105c-6.027,0.002 -11.034,-4.987 -11.054,-11.011c-0.021,-6.089 4.985,-11.103 11.076,-11.097c6.05,0.006 11.036,4.974 11.042,11.003Z" style="fill:#fefefe;fill-rule:nonzero;"/></g></svg>