<?xml version="1.0" encoding="UTF-8" standalone="no"?><!DOCTYPE svg PUBLIC "-//W3C//DTD SVG 1.1//EN" "http://www.w3.org/Graphics/SVG/1.1/DTD/svg11.dtd"><svg width="100%" height="100%" viewBox="0 0 1081 480" version="1.1" xmlns="http://www.w3.org/2000/svg" xmlns:xlink="http://www.w3.org/1999/xlink" xml:space="preserve" xmlns:serif="http://www.serif.com/" style="fill-rule:evenodd;clip-rule:evenodd;stroke-linejoin:round;stroke-miterlimit:2;"><g><g transform="matrix(12.8985,0,0,12.8985,-13696.8,-8327.5)"><text x="1102.17px" y="660.545px" style="font-family:'LTFlodeNeue-SemiBold', 'LT Flode Neue';font-weight:600;font-size:11.074px;fill:#da4391;">Przystań</text><text x="1102.17px" y="670.394px" style="font-family:'LTFlodeNeue-Regular', 'LT Flode Neue';font-size:9.228px;fill:#e56dab;">Zmian</text><text x="1125.61px" y="670.394px" style="font-family:'LTFlodeNeue-Regular', 'LT Flode Neue';font-size:9.228px;fill:#e56dab;">y</text><text x="1102.17px" y="679.919px" style="font-family:'LTFlodeNeue-Regular', 'LT Flode Neue';font-size:9.228px;fill:#e56dab;">Zawodowej</text></g><g><path d="M301.046,195.959c-0,0 27.199,6.125 42.856,-1.994c13.268,-2.723 15.198,-13.998 15.198,-13.998c0,-0 -14.229,13.05 -23.628,4.394c-17.77,0.405 -34.426,11.598 -34.426,11.598Z" style="fill:#f875b9;"/><path d="M279.662,167.765c8.891,-5.468 29.425,-33.298 44.533,-28.424c6.044,1.755 17.823,9.533 13.331,-5.427c-2.033,-10.262 -13.955,-16.076 -26.429,-7.647c-15.157,10.241 -31.435,41.498 -31.435,41.498Z" style="fill:#f875b9;"/><path d="M309.44,67.33c-11.15,-2.851 -30.106,1.796 -42.455,29.856c-2.464,8.595 -8.754,27.574 -9.945,33.291c-15.204,72.987 -46.289,95.169 -51.973,109.861c-4.425,20.591 1.846,38.417 19.909,78.774c25.123,41.165 17.82,94.214 6.967,131.891c-2.771,9.618 -3.652,15.054 -8.806,27.869c-8.953,0.424 -14.832,0.183 -24.409,0c-110.453,-0.808 -136.672,-54.91 -146.613,-105.038c-11.34,-76.256 -5.939,-106.466 -0,-174.742c7.761,-80.837 -11.84,-139.835 -52.115,-133.087c3.279,-11.127 16.781,-26.604 58.524,-18.719c6.42,-0.271 20.414,-9.176 34.157,-9.827c15.475,0.502 18.586,4.952 25.017,9.827c9.061,6.504 9.533,10.815 19.682,16.896c0.005,0.002 0.009,0.005 0.014,0.007c6.44,3.597 13.413,5.431 20.831,5.77c6.555,0.3 13.447,-0.552 20.579,-2.064c27.367,-5.801 58.491,-22.214 88.341,-20.609c9.227,0.497 17.857,2.423 25.927,7.775c2.054,1.362 11.31,6.633 15.631,10.944c1.148,1.145 1.288,1.454 0.737,1.325Zm28.774,-0.138c4.213,1.614 7.918,-2.213 8.738,-3.02c1.961,-1.931 3.283,-3.899 5.551,-4.923c33.565,-12.627 120.977,-15.315 124.647,-5.649c-5.252,-1.514 -28.352,11.78 -36.171,108.888c-3.987,58.032 21.254,89.985 15.437,209.793c-6.437,70.908 -24.842,107.804 -188.296,106.591c-6.174,-4.647 22.485,-80.308 41.658,-89.976c28.228,-16.468 62.136,1.177 87.871,-16.615c20.847,-14.178 3.868,-46.452 3.868,-46.452c-2.496,-10.74 8.075,-8.892 10.743,-15.19c2.889,-7.801 0.987,-14.048 -5.755,-16.282c7.651,-7.327 7.11,-12.205 5.755,-17.327c-2.339,-6.881 -11.81,-7.617 -14.611,-22.608c6.642,-9.963 21.605,-24.303 10.275,-37.88c-5.624,-5.782 -44.923,-29.149 -55.421,-54.054c-1.781,-4.227 -4.759,-22.078 -5.551,-32.011c-1.692,-14.874 -6.379,-37.943 -28.207,-59.495c-2.229,-2.904 -19.111,-26.6 -51.6,-29.193c-25.537,-3.237 -52.605,9.254 -77.402,15.07c-10.505,2.464 -20.397,5.293 -29.886,4.05c-6.277,-0.23 -21.603,-6.426 -23.676,-13.623c-1.504,-5.381 1.958,-16.473 -8.274,-46.173c14.863,3.437 26.522,12.14 39.612,12.846c5.206,0.249 10.597,0.574 14.695,2.703c5.031,2.611 8.129,7.229 11.158,8.991c8.249,5.076 15.691,6.631 35.047,2.567c20.571,-3.997 48.03,-8.48 71.669,6.806c9.773,6.319 16.262,12.025 23.781,19.774c5.347,5.51 9.577,10.719 14.345,12.392Zm-138.545,-44.657c-3.378,-1.554 -7.491,-5.067 -8.149,-8.576c-0.342,-3.231 0.402,-6.056 3.122,-11.273c2.271,-1.59 1.003,-4.185 16.621,-1.573c15.011,2.51 22.866,8.267 44.027,3.182c16.797,-5.932 29.38,-1.669 35.057,0c26.637,9.612 50.932,-7.347 56.605,2.702c1.93,3.48 -1.139,6.713 -1.737,10.807c-1.974,13.53 4.374,26.96 1.777,39.098c-0.919,3.446 -4.391,6.388 -7.671,5.749c-3.215,-0.608 -7.682,-5.827 -12.462,-10.753c-7.72,-7.956 -14.473,-13.883 -24.508,-20.371c-24.699,-15.971 -51.457,-13.173 -72.949,-8.999c-0.01,0.002 -0.021,0.004 -0.031,0.007c-14.621,3.071 -22.976,2.76 -29.702,-0Z" style="fill:#f875b9;"/><clipPath id="_clip1"><path d="M309.44,67.33c-11.15,-2.851 -30.106,1.796 -42.455,29.856c-2.464,8.595 -8.754,27.574 -9.945,33.291c-15.204,72.987 -46.289,95.169 -51.973,109.861c-4.425,20.591 1.846,38.417 19.909,78.774c25.123,41.165 17.82,94.214 6.967,131.891c-2.771,9.618 -3.652,15.054 -8.806,27.869c-8.953,0.424 -14.832,0.183 -24.409,0c-110.453,-0.808 -136.672,-54.91 -146.613,-105.038c-11.34,-76.256 -5.939,-106.466 -0,-174.742c7.761,-80.837 -11.84,-139.835 -52.115,-133.087c3.279,-11.127 16.781,-26.604 58.524,-18.719c6.42,-0.271 20.414,-9.176 34.157,-9.827c15.475,0.502 18.586,4.952 25.017,9.827c9.061,6.504 9.533,10.815 19.682,16.896c0.005,0.002 0.009,0.005 0.014,0.007c6.44,3.597 13.413,5.431 20.831,5.77c6.555,0.3 13.447,-0.552 20.579,-2.064c27.367,-5.801 58.491,-22.214 88.341,-20.609c9.227,0.497 17.857,2.423 25.927,7.775c2.054,1.362 11.31,6.633 15.631,10.944c1.148,1.145 1.288,1.454 0.737,1.325Zm28.774,-0.138c4.213,1.614 7.918,-2.213 8.738,-3.02c1.961,-1.931 3.283,-3.899 5.551,-4.923c33.565,-12.627 120.977,-15.315 124.647,-5.649c-5.252,-1.514 -28.352,11.78 -36.171,108.888c-3.987,58.032 21.254,89.985 15.437,209.793c-6.437,70.908 -24.842,107.804 -188.296,106.591c-6.174,-4.647 22.485,-80.308 41.658,-89.976c28.228,-16.468 62.136,1.177 87.871,-16.615c20.847,-14.178 3.868,-46.452 3.868,-46.452c-2.496,-10.74 8.075,-8.892 10.743,-15.19c2.889,-7.801 0.987,-14.048 -5.755,-16.282c7.651,-7.327 7.11,-12.205 5.755,-17.327c-2.339,-6.881 -11.81,-7.617 -14.611,-22.608c6.642,-9.963 21.605,-24.303 10.275,-37.88c-5.624,-5.782 -44.923,-29.149 -55.421,-54.054c-1.781,-4.227 -4.759,-22.078 -5.551,-32.011c-1.692,-14.874 -6.379,-37.943 -28.207,-59.495c-2.229,-2.904 -19.111,-26.6 -51.6,-29.193c-25.537,-3.237 -52.605,9.254 -77.402,15.07c-10.505,2.464 -20.397,5.293 -29.886,4.05c-6.277,-0.23 -21.603,-6.426 -23.676,-13.623c-1.504,-5.381 1.958,-16.473 -8.274,-46.173c14.863,3.437 26.522,12.14 39.612,12.846c5.206,0.249 10.597,0.574 14.695,2.703c5.031,2.611 8.129,7.229 11.158,8.991c8.249,5.076 15.691,6.631 35.047,2.567c20.571,-3.997 48.03,-8.48 71.669,6.806c9.773,6.319 16.262,12.025 23.781,19.774c5.347,5.51 9.577,10.719 14.345,12.392Zm-138.545,-44.657c-3.378,-1.554 -7.491,-5.067 -8.149,-8.576c-0.342,-3.231 0.402,-6.056 3.122,-11.273c2.271,-1.59 1.003,-4.185 16.621,-1.573c15.011,2.51 22.866,8.267 44.027,3.182c16.797,-5.932 29.38,-1.669 35.057,0c26.637,9.612 50.932,-7.347 56.605,2.702c1.93,3.48 -1.139,6.713 -1.737,10.807c-1.974,13.53 4.374,26.96 1.777,39.098c-0.919,3.446 -4.391,6.388 -7.671,5.749c-3.215,-0.608 -7.682,-5.827 -12.462,-10.753c-7.72,-7.956 -14.473,-13.883 -24.508,-20.371c-24.699,-15.971 -51.457,-13.173 -72.949,-8.999c-0.01,0.002 -0.021,0.004 -0.031,0.007c-14.621,3.071 -22.976,2.76 -29.702,-0Z"/></clipPath><g clip-path="url(#_clip1)"><path d="M498.958,45.123c3.54,-22.425 -103.473,-8.943 -143.977,4.003c9.8,-47.459 -7.493,-70.751 -36.87,-51.028c-36.93,4.292 -67.964,-34.513 -141.932,-0c-13.111,6.117 -28.007,-15.01 -40.708,-12.251c-34.945,12.069 -25.818,11.217 -20.419,52.055c22.887,16.326 17.115,25.804 54.391,26.018c14.935,0.086 56.548,-16.155 79.184,-18.797c22.099,-2.579 36.072,0.607 47.709,8.786c4.961,3.487 13.033,8.188 18.056,14.987c0.824,1.75 29.431,45.477 24.53,90.787c3.78,46.73 64.037,54.068 45.381,189.42c-13.771,40.88 -68.554,-0.436 -87.967,29.042c-29.976,71.995 -56.48,90.552 -37.17,113.997c43.459,28.226 137.563,5.148 196.807,-29.807c51.454,-36.492 -0,-280.815 -0,-280.815c7.302,-54.466 10.318,-112.933 42.985,-136.397Z" style="fill:#da4391;"/></g></g></g></svg>