<?xml version="1.0" encoding="UTF-8" standalone="no"?><!DOCTYPE svg PUBLIC "-//W3C//DTD SVG 1.1//EN" "http://www.w3.org/Graphics/SVG/1.1/DTD/svg11.dtd"><svg width="100%" height="100%" viewBox="0 0 4505 2000" version="1.1" xmlns="http://www.w3.org/2000/svg" xmlns:xlink="http://www.w3.org/1999/xlink" xml:space="preserve" xmlns:serif="http://www.serif.com/" style="fill-rule:evenodd;clip-rule:evenodd;stroke-linejoin:round;stroke-miterlimit:2;"><g><g><g><path d="M2194.51,802.25c29.163,0 58.325,-9.525 82.725,-23.808l0,-135.696l51.78,-0c83.32,-0.596 167.833,-27.971 167.833,-129.15c-0,-82.725 -68.442,-127.959 -144.621,-127.959l-70.825,0c-28.567,0 -63.088,6.546 -86.892,22.021l0,394.592Zm82.725,-354.717l61.3,0c40.471,0 74.992,26.188 74.992,69.634c-0,43.446 -35.708,67.254 -74.992,67.254l-61.3,-0l0,-136.888Z" style="fill:#da4391;fill-rule:nonzero;"/><path d="M2544.46,802.25c26.784,0 51.78,-4.167 74.396,-18.45l0,-216.042c16.667,-10.716 33.925,-16.07 52.971,-16.07c22.021,-0 35.708,17.854 35.708,42.254c22.021,-7.142 38.092,-27.375 38.092,-51.184c0,-35.112 -48.804,-44.637 -76.183,-44.637c-40.471,-0 -92.25,16.071 -124.984,39.283l0,264.846Z" style="fill:#da4391;fill-rule:nonzero;"/><path d="M2775.38,802.25l227.35,0c19.638,-11.904 34.517,-28.571 41.063,-51.183l-154.738,-0l153.55,-246.396l-230.329,-0c-18.45,12.496 -28.567,30.35 -32.137,51.183l148.791,0l-153.55,246.396Z" style="fill:#da4391;fill-rule:nonzero;"/><path d="M3291.38,732.021c-19.046,13.091 -41.066,22.021 -64.87,22.021c-39.876,-0 -60.709,-24.996 -60.709,-63.684l0,-185.687c-31.542,-0 -52.967,5.95 -74.396,19.637l0,170.813c0,66.658 44.046,113.675 106.534,113.675c32.141,-0 64.279,-11.308 93.441,-28.567l0,41.659c0,46.425 -33.329,74.991 -82.133,74.991c-39.279,0 -78.558,-11.904 -111.292,-33.329c1.784,16.071 4.759,45.233 20.234,58.921c19.045,17.854 80.941,28.567 108.32,28.567c85.7,-0 138.671,-54.159 138.671,-135.696l0,-310.671c-27.379,-0 -58.325,2.975 -73.8,17.854l0,209.496Z" style="fill:#da4391;fill-rule:nonzero;"/><path d="M3492.55,583.825c-0,-26.188 29.758,-35.112 51.779,-35.112c28.567,-0 65.467,13.091 72.608,45.229c14.288,-13.092 20.834,-33.33 20.834,-54.159l-0,-3.571c-22.021,-30.945 -64.875,-38.091 -99.988,-38.091c-54.158,-0 -120.816,20.237 -120.816,84.512c-0,102.963 160.691,84.513 160.691,139.863c0,29.162 -39.279,36.9 -63.683,36.9c-34.517,-0 -70.821,-13.092 -101.175,-33.921c2.975,15.471 4.167,37.492 14.879,50.587c19.046,22.021 77.371,32.138 107.129,32.138c53.563,0 117.842,-26.188 117.842,-87.487c-0,-100.584 -160.1,-78.563 -160.1,-136.888Z" style="fill:#da4391;fill-rule:nonzero;"/><path d="M3722.28,504.671l-29.758,-0c-11.904,14.283 -15.475,32.733 -15.475,51.183l45.233,0l0,164.859c0,50.587 33.329,86.295 82.725,86.295c45.233,0 79.158,-25.591 73.204,-73.8c-10.712,13.096 -29.162,22.021 -46.421,22.021c-23.212,0 -35.112,-16.066 -35.112,-38.683l-0,-160.692l60.108,0c11.904,-15.475 15.475,-32.733 15.475,-51.183l-75.583,-0l-0,-85.704c-27.379,-0 -53.567,4.762 -74.396,22.616l0,63.088Z" style="fill:#da4391;fill-rule:nonzero;"/><path d="M4171.62,610.608c0,-77.966 -64.275,-112.487 -135.696,-112.487c-36.9,-0 -78.558,7.737 -104.15,35.116c-2.975,19.642 5.95,45.234 21.425,58.325c16.663,-30.354 48.209,-42.85 79.154,-42.85c36.9,0 64.875,20.83 64.875,58.921l0,24.4c-23.212,-11.904 -49.4,-17.258 -76.183,-17.258c-57.133,-0 -111.887,32.733 -111.887,95.821c-0,65.466 62.491,98.2 124.387,98.2c42.85,-0 102.367,-13.688 138.075,-38.092l0,-160.096Zm-74.392,132.125c-17.262,8.925 -36.304,14.879 -55.945,14.879c-30.355,0 -58.921,-14.879 -58.921,-50.587c-0,-35.713 29.162,-49.996 58.921,-49.996c18.45,0 38.683,1.192 55.945,8.929l0,76.775Z" style="fill:#da4391;fill-rule:nonzero;"/><path d="M4231.12,802.25c27.379,0 58.921,-3.571 74.396,-17.854l-0,-217.233c19.046,-8.93 39.875,-14.88 61.3,-14.88c39.875,0 60.112,25.592 60.112,64.275l0,185.692c31.542,0 52.971,-6.55 74.396,-19.642l0,-171.404c0,-69.041 -54.754,-113.083 -127.366,-113.083c-45.23,-0 -104.15,16.071 -142.838,39.283l0,264.846Zm201.758,-397.567c-10.712,-18.45 -46.42,-32.733 -61.895,-32.137l-72.013,89.867c7.738,5.954 18.45,8.929 28.567,8.929c10.116,-0 20.829,-4.763 30.354,-10.713l74.987,-55.946Z" style="fill:#da4391;fill-rule:nonzero;"/></g><g><path d="M2180.12,1331.57l241.029,-0c14.384,-7.438 23.804,-18.846 27.275,-34.221l-195.896,-0l195.4,-312.942l-243.012,0c-12.4,8.429 -18.35,20.334 -20.829,34.221l191.929,0l-195.896,312.942Z" style="fill:#e56dab;fill-rule:nonzero;"/><path d="M2488.6,1331.57c12.892,-0 26.284,-1.488 36.7,-9.921l0,-197.383c17.854,-9.425 37.196,-15.375 57.529,-15.375c39.18,-0 55.546,24.796 55.546,61l0,161.679c13.392,-0 25.788,-2.975 36.7,-10.417l0,-157.708c0,-11.409 -1.983,-23.313 -6.446,-33.229c18.846,-13.392 40.667,-20.83 63.48,-20.83c39.179,0 56.041,24.796 56.041,61l0,161.68c13.392,-0 25.296,-2.975 36.204,-10.417l0,-157.708c0,-50.588 -37.196,-85.305 -87.287,-85.305c-29.259,0 -60.009,9.425 -84.804,24.796c-16.863,-17.358 -40.175,-25.291 -64.971,-25.291c-31.742,-0 -72.408,11.904 -98.692,30.254l0,223.175Z" style="fill:#e56dab;fill-rule:nonzero;"/><path d="M2874.95,1052.35c13.392,0 25.787,-2.483 36.7,-10.417l-0,-48.108c-13.392,0 -26.288,1.983 -36.7,10.417l-0,48.108Zm-0,279.217c13.392,-0 25.787,-2.479 36.7,-9.921l-0,-238.054c-12.896,-0 -25.788,1.487 -36.7,9.921l-0,238.054Z" style="fill:#e56dab;fill-rule:nonzero;"/><path d="M3149.2,1165.92c0,-61 -47.612,-87.783 -101.175,-87.783c-27.771,-0 -60.504,7.437 -78.854,29.758c-2.975,12.892 1.487,30.25 10.417,39.179c10.908,-27.279 41.162,-38.683 70.425,-38.683c34.216,-0 62.487,19.341 62.487,57.529l0,23.804c-20.829,-9.916 -44.633,-14.879 -67.946,-14.879c-48.6,0 -93.237,27.775 -93.237,80.346c-0,53.066 45.629,81.829 94.229,81.829c32.733,0 76.379,-10.908 103.654,-29.258l0,-141.842Zm-36.7,123.987c-18.846,9.917 -39.675,16.367 -61,16.367c-31.742,0 -62.987,-14.879 -62.987,-51.579c-0,-36.204 32.237,-50.588 63.979,-50.588c20.333,0 40.667,1.488 60.008,9.921l0,75.879Z" style="fill:#e56dab;fill-rule:nonzero;"/><path d="M3198.8,1331.57c12.892,-0 26.283,-1.488 36.7,-9.921l0,-197.383c20.333,-9.425 42.154,-15.375 64.471,-15.375c41.662,-0 62.987,25.787 62.987,65.958l0,156.721c13.392,-0 25.788,-2.975 36.7,-10.417l0,-152.75c0,-54.058 -42.154,-90.262 -94.725,-90.262c-34.221,-0 -77.37,11.904 -106.133,30.254l-0,223.175Z" style="fill:#e56dab;fill-rule:nonzero;"/></g><path d="M3617.43,1282.97c-19.838,13.391 -43.147,23.31 -67.449,23.31c-42.155,-0 -63.977,-25.79 -63.977,-66.457l0,-156.223c-13.39,-0 -25.293,2.48 -36.7,10.415l0,152.751c0,51.083 37.196,90.262 88.775,90.262c27.277,0 56.042,-9.919 79.351,-23.805l0,41.163c0,44.14 -29.261,69.433 -71.416,69.433c-31.741,-0 -62.985,-9.423 -88.774,-27.277c1.983,10.911 2.975,27.773 10.414,35.212c16.863,14.878 64.969,22.813 87.287,22.813c61.001,0 99.189,-42.651 99.189,-103.652l0,-267.315c-12.895,-0 -26.285,1.488 -36.7,9.919l0,189.451Z" style="fill:#e56dab;fill-rule:nonzero;"/><g><path d="M2180.12,1843.48l241.029,0c14.384,-7.437 23.804,-18.846 27.275,-34.221l-195.896,0l195.4,-312.941l-243.012,-0c-12.4,8.433 -18.35,20.333 -20.829,34.221l191.929,-0l-195.896,312.941Z" style="fill:#e56dab;fill-rule:nonzero;"/><path d="M2676.57,1677.83c-0,-61 -47.613,-87.783 -101.175,-87.783c-27.771,0 -60.504,7.442 -78.854,29.758c-2.976,12.896 1.487,30.255 10.416,39.179c10.909,-27.274 41.163,-38.683 70.425,-38.683c34.217,0 62.488,19.342 62.488,57.529l-0,23.805c-20.83,-9.917 -44.638,-14.875 -67.946,-14.875c-48.6,-0 -93.238,27.77 -93.238,80.341c0,53.067 45.63,81.834 94.229,81.834c32.734,-0 76.376,-10.913 103.655,-29.263l-0,-141.842Zm-36.7,123.988c-18.846,9.916 -39.675,16.366 -61,16.366c-31.742,0 -62.988,-14.879 -62.988,-51.579c0,-36.204 32.238,-50.587 63.979,-50.587c20.334,-0 40.667,1.487 60.009,9.921l-0,75.879Z" style="fill:#e56dab;fill-rule:nonzero;"/><path d="M2879.9,1651.55l60.013,192.921c10.908,1.487 34.712,0.992 38.683,-10.413l74.888,-227.641c-10.913,-8.429 -22.317,-10.413 -35.709,-10.413l-60.508,204.825l-60.504,-204.825c-13.392,0 -25.292,1.984 -35.709,10.413l-58.025,194.412l-61,-204.825c-13.391,0 -24.8,1.984 -35.708,10.413l79.35,238.054c9.921,1.487 34.717,0.991 37.692,-10.413l56.537,-182.508Z" style="fill:#e56dab;fill-rule:nonzero;"/><path d="M3189.38,1848.44c72.904,-0 116.054,-59.513 116.054,-128.946c0,-70.921 -41.662,-129.442 -116.054,-129.442c-74.887,0 -116.05,58.025 -116.05,129.442c0,69.433 44.138,128.946 116.05,128.946Zm0,-30.746c-53.067,-0 -78.358,-51.58 -78.358,-98.2c-0,-47.609 23.804,-98.692 78.358,-98.692c53.563,0 78.858,52.075 78.858,98.692c0,48.604 -23.312,98.2 -78.858,98.2Z" style="fill:#e56dab;fill-rule:nonzero;"/><path d="M3509.76,1612.37c-19.341,-15.371 -42.154,-22.813 -67.45,-22.813c-71.912,0 -107.125,65.467 -107.125,129.442c0,65.466 36.204,129.942 109.109,129.942c33.725,-0 74.391,-11.409 102.166,-29.759l0,-327.821c-12.896,0 -25.787,2.975 -36.7,10.909l0,110.1Zm0,189.454c-18.35,9.917 -38.683,16.367 -59.512,16.367c-56.042,-0 -78.363,-50.588 -78.363,-99.192c0,-47.608 22.321,-98.692 77.867,-98.692c23.308,0 44.137,7.934 60.008,25.292l0,156.225Z" style="fill:#e56dab;fill-rule:nonzero;"/><path d="M3702.19,1848.44c72.904,-0 116.05,-59.513 116.05,-128.946c-0.001,-70.921 -41.659,-129.442 -116.051,-129.442c-74.891,0 -116.054,58.025 -116.054,129.442c0,69.433 44.142,128.946 116.054,128.946Zm0,-30.746c-53.066,-0 -78.362,-51.58 -78.362,-98.2c0,-47.609 23.808,-98.692 78.362,-98.692c53.563,0 78.855,52.075 78.855,98.692c-0,48.604 -23.309,98.2 -78.855,98.2Z" style="fill:#e56dab;fill-rule:nonzero;"/><path d="M4011.66,1651.55l60.009,192.921c10.912,1.487 34.716,0.992 38.683,-10.413l74.887,-227.641c-10.908,-8.429 -22.316,-10.413 -35.708,-10.413l-60.504,204.825l-60.504,-204.825c-13.392,0 -25.296,1.984 -35.709,10.413l-58.029,194.412l-61,-204.825c-13.391,0 -24.796,1.984 -35.708,10.413l79.35,238.054c9.921,1.487 34.717,0.991 37.696,-10.413l56.537,-182.508Z" style="fill:#e56dab;fill-rule:nonzero;"/><path d="M4414.38,1783.97c-20.333,22.812 -50.587,33.725 -80.346,33.725c-58.521,-0 -91.254,-44.638 -91.254,-100.679c0,-45.13 23.808,-96.213 76.875,-96.213c45.625,0 65.463,40.667 66.454,79.846l-95.716,-0c-12.4,4.962 -20.334,14.879 -20.334,27.775l141.842,-0c9.917,-0 11.404,-11.409 11.404,-19.342c0,-64.475 -37.196,-119.029 -106.133,-119.029c-70.917,0 -112.084,61.004 -112.084,126.963c0,72.904 46.125,131.425 122.005,131.425c36.7,-0 85.8,-16.363 87.287,-58.025l0,-6.446Z" style="fill:#e56dab;fill-rule:nonzero;"/><path d="M4462.96,1564.26c13.388,-0 25.788,-2.48 36.7,-10.417l0,-48.104c-12.896,-0 -26.287,1.983 -36.7,10.412l0,48.109Zm0,339.229c0,17.354 -10.912,29.258 -27.775,29.258c-16.862,0 -29.262,-12.896 -33.229,-28.267c-10.412,8.925 -14.383,22.813 -14.383,35.709l-0,1.983c15.375,14.875 32.733,19.838 54.058,19.838c34.221,-0 58.029,-22.813 58.029,-58.025l0,-308.48c-12.896,0 -25.791,1.488 -36.7,9.917l0,298.067Z" style="fill:#e56dab;fill-rule:nonzero;"/></g></g><g><path d="M1254.36,816.496c0,-0 113.33,25.521 178.567,-8.308c55.283,-11.346 63.325,-58.325 63.325,-58.325c0,-0 -59.287,54.375 -98.45,18.308c-74.042,1.687 -143.442,48.325 -143.442,48.325Z" style="fill:#f875b9;"/><path d="M1165.26,699.021c37.046,-22.783 122.604,-138.742 185.554,-118.433c25.184,7.312 74.263,39.72 55.546,-22.613c-8.471,-42.758 -58.145,-66.983 -110.12,-31.862c-63.155,42.67 -130.98,172.908 -130.98,172.908Z" style="fill:#f875b9;"/><path d="M1289.33,280.542c-46.458,-11.88 -125.441,7.483 -176.895,124.4c-10.267,35.812 -36.476,114.891 -41.438,138.712c-63.35,304.113 -192.871,396.538 -216.554,457.754c-18.438,85.796 7.692,160.071 82.954,328.225c104.679,171.521 74.25,392.559 29.029,549.546c-11.546,40.075 -15.216,62.725 -36.692,116.121c-37.304,1.767 -61.799,0.763 -101.704,0c-460.221,-3.367 -569.466,-228.792 -610.887,-437.658c-47.25,-317.734 -24.746,-443.609 -0,-728.092c32.337,-336.821 -49.334,-582.646 -217.146,-554.529c13.662,-46.363 69.921,-110.85 243.85,-77.996c26.75,-1.129 85.058,-38.233 142.321,-40.946c64.479,2.092 77.442,20.634 104.237,40.946c37.755,27.1 39.721,45.063 82.009,70.4c0.02,0.008 0.037,0.021 0.058,0.029c26.833,14.988 55.888,22.629 86.796,24.042c27.312,1.25 56.029,-2.3 85.746,-8.6c114.029,-24.171 243.712,-92.559 368.087,-85.871c38.446,2.071 74.404,10.096 108.029,32.396c8.559,5.675 47.125,27.637 65.13,45.6c4.783,4.771 5.366,6.058 3.07,5.521Zm119.892,-0.575c17.554,6.725 32.992,-9.221 36.408,-12.584c8.171,-8.046 13.68,-16.246 23.13,-20.512c139.854,-52.613 504.07,-63.813 519.362,-23.538c-21.883,-6.308 -118.133,49.084 -150.712,453.7c-16.613,241.8 88.558,374.938 64.32,874.138c-26.82,295.45 -103.508,449.183 -784.566,444.129c-25.725,-19.362 93.687,-334.617 173.575,-374.9c117.616,-68.617 258.9,4.904 366.129,-69.229c86.862,-59.075 16.117,-193.55 16.117,-193.55c-10.4,-44.75 33.645,-37.05 44.762,-63.292c12.038,-32.504 4.113,-58.533 -23.979,-67.842c31.879,-30.529 29.625,-50.854 23.979,-72.195c-9.746,-28.671 -49.208,-31.738 -60.879,-94.2c27.675,-41.513 90.021,-101.263 42.812,-157.834c-23.433,-24.091 -187.179,-121.454 -230.92,-225.225c-7.421,-17.612 -19.83,-91.991 -23.13,-133.379c-7.05,-61.975 -26.579,-158.096 -117.529,-247.896c-9.287,-12.1 -79.629,-110.833 -215,-121.637c-106.404,-13.488 -219.187,38.558 -322.508,62.792c-43.771,10.266 -84.988,22.054 -124.525,16.875c-26.154,-0.959 -90.013,-26.775 -98.65,-56.763c-6.267,-22.421 8.158,-68.637 -34.475,-192.387c61.929,14.32 110.508,50.583 165.05,53.525c21.692,1.037 44.154,2.391 61.229,11.262c20.963,10.879 33.871,30.121 46.492,37.463c34.371,21.15 65.379,27.629 146.029,10.695c85.712,-16.654 200.125,-35.333 298.621,28.359c40.721,26.329 67.758,50.104 99.087,82.391c22.279,22.959 39.904,44.663 59.771,51.634Zm-577.271,-186.071c-14.075,-6.475 -31.212,-21.113 -33.954,-35.734c-1.425,-13.462 1.675,-25.233 13.008,-46.97c9.463,-6.625 4.18,-17.438 69.255,-6.555c62.545,10.459 95.275,34.446 183.445,13.259c69.988,-24.717 122.417,-6.954 146.071,-0c110.988,40.05 212.217,-30.613 235.854,11.258c8.042,14.5 -4.745,27.971 -7.237,45.029c-8.225,56.375 18.225,112.334 7.404,162.909c-3.829,14.358 -18.296,26.616 -31.962,23.954c-13.396,-2.534 -32.009,-24.279 -51.925,-44.804c-32.167,-33.15 -60.305,-57.846 -102.117,-84.879c-102.913,-66.546 -214.404,-54.888 -303.954,-37.496c-0.042,0.008 -0.088,0.016 -0.129,0.029c-60.921,12.796 -95.734,11.5 -123.759,-0Z" style="fill:#f875b9;"/><g><g><clipPath id="_clip1"><path d="M1289.33,280.542c-46.458,-11.88 -125.441,7.483 -176.895,124.4c-10.267,35.812 -36.476,114.891 -41.438,138.712c-63.35,304.113 -192.871,396.538 -216.554,457.754c-18.438,85.796 7.692,160.071 82.954,328.225c104.679,171.521 74.25,392.559 29.029,549.546c-11.546,40.075 -15.216,62.725 -36.692,116.121c-37.304,1.767 -61.799,0.763 -101.704,0c-460.221,-3.367 -569.466,-228.792 -610.887,-437.658c-47.25,-317.734 -24.746,-443.609 -0,-728.092c32.337,-336.821 -49.334,-582.646 -217.146,-554.529c13.662,-46.363 69.921,-110.85 243.85,-77.996c26.75,-1.129 85.058,-38.233 142.321,-40.946c64.479,2.092 77.442,20.634 104.237,40.946c37.755,27.1 39.721,45.063 82.009,70.4c0.02,0.008 0.037,0.021 0.058,0.029c26.833,14.988 55.888,22.629 86.796,24.042c27.312,1.25 56.029,-2.3 85.746,-8.6c114.029,-24.171 243.712,-92.559 368.087,-85.871c38.446,2.071 74.404,10.096 108.029,32.396c8.559,5.675 47.125,27.637 65.13,45.6c4.783,4.771 5.366,6.058 3.07,5.521Zm119.892,-0.575c17.554,6.725 32.992,-9.221 36.408,-12.584c8.171,-8.046 13.68,-16.246 23.13,-20.512c139.854,-52.613 504.07,-63.813 519.362,-23.538c-21.883,-6.308 -118.133,49.084 -150.712,453.7c-16.613,241.8 88.558,374.938 64.32,874.138c-26.82,295.45 -103.508,449.183 -784.566,444.129c-25.725,-19.362 93.687,-334.617 173.575,-374.9c117.616,-68.617 258.9,4.904 366.129,-69.229c86.862,-59.075 16.117,-193.55 16.117,-193.55c-10.4,-44.75 33.645,-37.05 44.762,-63.292c12.038,-32.504 4.113,-58.533 -23.979,-67.842c31.879,-30.529 29.625,-50.854 23.979,-72.195c-9.746,-28.671 -49.208,-31.738 -60.879,-94.2c27.675,-41.513 90.021,-101.263 42.812,-157.834c-23.433,-24.091 -187.179,-121.454 -230.92,-225.225c-7.421,-17.612 -19.83,-91.991 -23.13,-133.379c-7.05,-61.975 -26.579,-158.096 -117.529,-247.896c-9.287,-12.1 -79.629,-110.833 -215,-121.637c-106.404,-13.488 -219.187,38.558 -322.508,62.792c-43.771,10.266 -84.988,22.054 -124.525,16.875c-26.154,-0.959 -90.013,-26.775 -98.65,-56.763c-6.267,-22.421 8.158,-68.637 -34.475,-192.387c61.929,14.32 110.508,50.583 165.05,53.525c21.692,1.037 44.154,2.391 61.229,11.262c20.963,10.879 33.871,30.121 46.492,37.463c34.371,21.15 65.379,27.629 146.029,10.695c85.712,-16.654 200.125,-35.333 298.621,28.359c40.721,26.329 67.758,50.104 99.087,82.391c22.279,22.959 39.904,44.663 59.771,51.634Zm-577.271,-186.071c-14.075,-6.475 -31.212,-21.113 -33.954,-35.734c-1.425,-13.462 1.675,-25.233 13.008,-46.97c9.463,-6.625 4.18,-17.438 69.255,-6.555c62.545,10.459 95.275,34.446 183.445,13.259c69.988,-24.717 122.417,-6.954 146.071,-0c110.988,40.05 212.217,-30.613 235.854,11.258c8.042,14.5 -4.745,27.971 -7.237,45.029c-8.225,56.375 18.225,112.334 7.404,162.909c-3.829,14.358 -18.296,26.616 -31.962,23.954c-13.396,-2.534 -32.009,-24.279 -51.925,-44.804c-32.167,-33.15 -60.305,-57.846 -102.117,-84.879c-102.913,-66.546 -214.404,-54.888 -303.954,-37.496c-0.042,0.008 -0.088,0.016 -0.129,0.029c-60.921,12.796 -95.734,11.5 -123.759,-0Z"/></clipPath><g clip-path="url(#_clip1)"><path d="M2078.99,188.013c14.75,-93.438 -431.138,-37.263 -599.905,16.679c40.834,-197.746 -31.22,-294.796 -153.625,-212.617c-153.875,17.883 -283.183,-143.804 -591.383,-0c-54.629,25.487 -116.696,-62.542 -169.617,-51.046c-145.604,50.288 -107.575,46.738 -85.079,216.896c95.363,68.025 71.313,107.517 226.629,108.408c62.23,0.359 235.617,-67.312 329.934,-78.32c92.079,-10.746 150.3,2.529 198.787,36.608c20.671,14.529 54.304,34.117 75.234,62.446c3.433,7.291 122.629,189.487 102.208,378.279c15.75,194.708 266.821,225.283 189.087,789.25c-57.379,170.333 -285.641,-1.817 -366.529,121.008c-124.9,299.979 -235.333,377.3 -154.875,474.988c181.079,117.608 573.18,21.45 820.029,-124.196c214.392,-152.05 0,-1170.06 0,-1170.06c30.425,-226.941 42.992,-470.554 179.105,-568.321Z" style="fill:#da4391;"/></g></g></g></g></g></svg>